<?xml version="1.0" standalone="no"?>
<!DOCTYPE svg PUBLIC "-//W3C//DTD SVG 20010904//EN"
 "http://www.w3.org/TR/2001/REC-SVG-20010904/DTD/svg10.dtd">
<svg version="1.0" xmlns="http://www.w3.org/2000/svg"
 width="700.000000pt" height="700.000000pt" viewBox="0 0 700.000000 700.000000"
 preserveAspectRatio="xMidYMid meet">
<metadata>
Created by potrace 1.14, written by Peter Selinger 2001-2017
</metadata>
<g transform="translate(0.000000,700.000000) scale(0.100000,-0.100000)"
fill="#000000" stroke="none">
<path d="M4709 4961 l-305 -6 -85 -50 c-166 -98 -321 -281 -395 -463 -62 -153
-58 -85 -64 -1167 -5 -903 -7 -994 -22 -1033 -55 -137 -165 -215 -303 -216
-127 0 -244 75 -298 192 -22 47 -22 54 -27 807 l-5 760 -29 63 c-37 80 -114
153 -188 178 -153 52 -324 -19 -395 -164 l-28 -57 -5 -535 -5 -535 -28 -61
c-70 -150 -219 -228 -365 -190 -101 26 -173 83 -224 179 l-23 42 -6 775 c-5
756 -6 777 -27 858 -68 259 -220 449 -465 584 l-70 38 -302 0 c-336 0 -370 -5
-447 -63 -49 -37 -102 -112 -118 -165 -17 -55 -24 -296 -12 -375 20 -126 85
-216 192 -266 46 -21 73 -26 173 -29 104 -4 118 -7 114 -21 -70 -235 -96 -347
-122 -523 l-6 -38 -208 0 c-180 0 -218 -3 -273 -20 -363 -112 -422 -612 -97
-807 91 -54 146 -63 396 -63 l222 0 10 -37 c5 -21 17 -66 25 -99 9 -34 34
-114 56 -177 132 -383 334 -712 617 -1008 l96 -99 -27 -40 c-14 -21 -116 -168
-226 -326 -111 -158 -211 -306 -223 -328 -18 -34 -22 -57 -22 -136 0 -84 3
-102 28 -152 78 -158 272 -228 433 -154 34 15 79 46 101 69 22 23 109 141 193
262 84 121 184 264 222 317 l68 97 100 -50 c513 -256 1103 -338 1676 -233 240
44 490 126 701 233 l102 51 69 -98 c38 -53 138 -196 222 -317 84 -121 171
-239 193 -262 154 -161 435 -116 534 85 25 50 28 68 28 152 0 84 -3 101 -27
145 -15 28 -128 194 -251 369 l-224 320 89 90 c326 330 566 756 687 1221 l26
100 255 5 c272 6 291 9 385 64 52 31 137 121 164 174 116 227 26 494 -206 609
l-77 38 -240 5 -241 5 -3 35 c-6 74 -63 330 -95 431 l-34 106 61 6 c34 3 82
13 108 22 62 22 142 94 176 159 26 49 27 57 30 240 2 119 -1 206 -8 235 -25
102 -126 205 -225 229 -48 12 -1045 20 -1476 13z"/>
</g>
</svg>
