<?xml version="1.0" standalone="no"?>
<!DOCTYPE svg PUBLIC "-//W3C//DTD SVG 20010904//EN"
 "http://www.w3.org/TR/2001/REC-SVG-20010904/DTD/svg10.dtd">
<svg version="1.0" xmlns="http://www.w3.org/2000/svg"
 width="200.000000pt" height="200.000000pt" viewBox="0 0 200.000000 200.000000"
 preserveAspectRatio="xMidYMid meet">
<metadata>
Created by potrace 1.14, written by Peter Selinger 2001-2017
</metadata>
<g transform="translate(0.000000,200.000000) scale(0.100000,-0.100000)"
fill="#000000" stroke="none">
<path d="M966 1782 c-3 -5 -5 -117 -5 -251 0 -133 -3 -247 -6 -252 -9 -14 -45
-11 -51 5 -3 8 -7 113 -9 233 -2 120 -3 228 -4 241 -1 17 -7 22 -27 22 -49 0
-51 -9 -48 -235 5 -349 4 -341 75 -405 45 -40 45 -38 34 -215 -4 -71 -9 -157
-10 -190 -9 -181 -19 -262 -47 -373 -17 -67 -27 -126 -23 -130 8 -9 301 -9
310 -1 3 4 -4 44 -15 90 -40 154 -46 201 -55 426 -3 73 -8 146 -10 163 -4 30
-7 137 -6 174 1 10 21 38 46 62 27 27 48 59 54 82 14 55 20 530 7 540 -6 4
-23 9 -37 10 -35 4 -35 -2 -38 -273 -2 -193 -4 -222 -19 -233 -14 -10 -19 -10
-28 3 -6 8 -13 13 -15 11 -2 -3 -3 106 -2 242 2 185 -1 248 -10 254 -16 10
-54 10 -61 0z"/>
<path d="M690 1721 c-58 -23 -130 -68 -131 -84 -3 -28 2 -123 7 -139 3 -9 7
-26 9 -38 2 -12 7 -31 11 -43 l7 -22 -23 20 c-28 24 -57 88 -66 141 -3 21 -7
40 -8 41 -1 2 -17 -10 -36 -26 l-34 -28 14 -49 c36 -129 121 -220 258 -273
l54 -21 -7 267 c-4 148 -8 269 -8 270 -1 0 -22 -7 -47 -16z"/>
<path d="M1259 1647 c-1 -174 -9 -412 -14 -424 -14 -40 138 24 201 84 53 49
87 105 110 177 l18 58 -34 30 -34 30 -16 -64 c-18 -73 -29 -95 -60 -123 l-23
-20 7 23 c3 12 8 31 11 41 21 72 22 178 4 196 -20 19 -87 55 -131 71 l-38 13
-1 -92z"/>
<path d="M345 1435 c-49 -81 -48 -70 -7 -104 l37 -30 -44 10 c-24 5 -47 6 -51
2 -9 -10 -40 -102 -40 -119 0 -8 19 -4 58 12 58 23 104 32 176 33 l39 1 -43
46 c-23 25 -55 74 -72 110 -16 35 -32 64 -34 64 -2 0 -10 -11 -19 -25z"/>
<path d="M1596 1386 c-21 -40 -51 -86 -67 -102 -38 -36 -37 -44 9 -44 47 0
154 -25 192 -45 28 -14 30 -14 29 2 0 10 -9 41 -18 68 l-18 50 -44 -2 -44 -3
33 26 32 26 -21 36 c-41 69 -42 69 -83 -12z"/>
<path d="M380 1153 c-30 -7 -79 -25 -107 -40 -43 -21 -53 -31 -54 -52 -2 -55
2 -177 6 -191 2 -8 7 -30 10 -48 7 -43 47 -147 75 -197 64 -113 148 -206 251
-276 70 -47 190 -102 200 -91 9 9 55 195 63 251 6 39 3 50 -29 99 -69 103
-187 203 -351 297 l-79 45 40 0 c117 0 289 -83 399 -192 16 -16 30 -27 32 -25
2 2 7 61 10 131 7 143 13 129 -80 200 -117 89 -258 122 -386 89z"/>
<path d="M1419 1153 c-73 -18 -143 -55 -213 -110 l-59 -47 7 -129 c3 -72 7
-131 9 -133 1 -2 27 19 56 46 107 95 237 157 348 166 l68 6 -77 -45 c-167 -97
-284 -197 -354 -301 -29 -45 -34 -58 -29 -92 7 -43 55 -245 62 -256 6 -12 102
30 178 77 220 137 362 380 366 626 2 130 4 123 -53 151 -108 53 -208 67 -309
41z"/>
</g>
</svg>
